# xmcd
#
# Track frame offsets: 
#        187
#        28445
#        47722
#        75205
#        97640
#        116032
#        143572
#        171825
#        190925
#        218357
#
# Disc length: 3145 seconds
#
# Revision: 2
# Processed by: cddbd v1.5.2PL0 Copyright (c) Steve Scherf et al.
# Submitted via: ExactAudioCopyFreeDBPlugin 1.0
#
DISCID=770c470a
DTITLE=Tuan Ngoc - Nhung Tinh Khuc Yeu Cau
DYEAR=1900
DGENRE=
TTITLE0=Noi Long
TTITLE1=Bai Khong Ten So 03
TTITLE2=Bai Khong Ten So 05
TTITLE3=Bai Khong Ten So 08
TTITLE4=Bai Khong Ten So 04
TTITLE5=Bai Khong Ten So 07
TTITLE6=Bai Khong Ten So 02
TTITLE7=Chieu Nay Khong Co Em
TTITLE8=Thuo Ban Dau
TTITLE9=Neu Xa Nhau
EXTD=
EXTT0=
EXTT1=
EXTT2=
EXTT3=
EXTT4=
EXTT5=
EXTT6=
EXTT7=
EXTT8=
EXTT9=
PLAYORDER=
